<svg width="18" height="12" viewBox="0 0 18 12" fill="none" xmlns="http://www.w3.org/2000/svg">
<path fill-rule="evenodd" clip-rule="evenodd" d="M1.66699 7.33335H2.66699C3.21928 7.33335 3.66699 7.78107 3.66699 8.33335V10.3334C3.66699 10.8856 3.21928 11.3334 2.66699 11.3334H1.66699C1.11471 11.3334 0.666992 10.8856 0.666992 10.3334V8.33335C0.666992 7.78107 1.11471 7.33335 1.66699 7.33335ZM6.33398 5.33337H7.33398C7.88627 5.33337 8.33398 5.78109 8.33398 6.33337V10.3334C8.33398 10.8857 7.88627 11.3334 7.33398 11.3334H6.33398C5.7817 11.3334 5.33398 10.8857 5.33398 10.3334V6.33337C5.33398 5.78109 5.7817 5.33337 6.33398 5.33337ZM11 3H12C12.5523 3 13 3.44772 13 4V10.3333C13 10.8856 12.5523 11.3333 12 11.3333H11C10.4477 11.3333 10 10.8856 10 10.3333V4C10 3.44772 10.4477 3 11 3ZM15.667 0.666687H16.667C17.2193 0.666687 17.667 1.1144 17.667 1.66669V10.3334C17.667 10.8856 17.2193 11.3334 16.667 11.3334H15.667C15.1147 11.3334 14.667 10.8856 14.667 10.3334V1.66669C14.667 1.1144 15.1147 0.666687 15.667 0.666687V0.666687Z" fill="white"/>
</svg>
